<?xml version="1.0" standalone="no"?>
<!DOCTYPE svg PUBLIC "-//W3C//DTD SVG 20010904//EN"
 "http://www.w3.org/TR/2001/REC-SVG-20010904/DTD/svg10.dtd">
<svg version="1.0" xmlns="http://www.w3.org/2000/svg"
 width="400.000000pt" height="400.000000pt" viewBox="0 0 400.000000 400.000000"
 preserveAspectRatio="xMidYMid meet">
<metadata>
Created by potrace 1.11, written by Peter Selinger 2001-2013
</metadata>
<g transform="translate(0.000000,400.000000) scale(0.100000,-0.100000)"
fill="#000000" stroke="none">
<path d="M0 2005 l0 -1995 2000 0 2000 0 0 1995 0 1995 -2000 0 -2000 0 0
-1995z m1648 532 c21 -17 99 -189 117 -257 9 -35 27 -84 40 -109 12 -25 28
-73 35 -106 7 -33 23 -78 36 -100 12 -22 26 -59 30 -83 8 -53 32 -86 57 -76
23 8 82 138 97 211 6 32 22 78 34 103 13 25 30 75 39 111 9 37 32 100 52 140
19 40 35 79 35 87 0 17 30 75 44 84 6 4 48 8 94 8 75 0 85 -2 107 -25 l25 -24
0 -501 c0 -473 -1 -501 -18 -518 -23 -23 -92 -35 -127 -22 -44 17 -48 44 -42
330 6 261 1 346 -18 343 -6 0 -16 -21 -23 -45 -7 -23 -22 -65 -34 -93 -11 -27
-37 -97 -57 -155 -21 -58 -44 -116 -53 -130 -9 -14 -26 -63 -37 -110 -29 -115
-54 -142 -130 -138 l-55 3 -34 60 c-18 32 -39 86 -46 120 -7 33 -23 80 -36
105 -13 25 -36 83 -51 129 -16 46 -38 99 -49 118 -11 18 -27 59 -36 91 -9 31
-19 61 -21 66 -17 28 -23 -55 -23 -340 0 -370 3 -358 -81 -357 -45 1 -57 5
-76 27 l-23 27 0 484 c0 338 3 492 11 509 12 24 41 41 89 50 35 6 113 -4 128
-17z m-537 -24 c73 -51 149 -139 149 -174 0 -64 -58 -109 -141 -109 -53 0
-106 30 -142 80 -33 46 -61 54 -173 48 -69 -3 -79 -6 -100 -31 -41 -47 -29
-115 26 -156 24 -17 57 -26 136 -37 57 -7 121 -22 142 -33 21 -10 63 -27 94
-36 152 -44 240 -236 179 -394 -28 -73 -44 -95 -104 -139 -106 -79 -99 -77
-332 -77 l-210 0 -50 29 c-133 77 -177 126 -191 215 -6 36 -3 43 23 70 17 16
46 33 66 36 67 13 103 -1 176 -70 37 -35 80 -69 95 -75 15 -5 63 -10 106 -10
75 0 80 1 122 36 53 44 58 52 58 86 0 56 -55 96 -155 113 -21 4 -56 15 -77 26
-20 10 -71 24 -113 30 -93 14 -169 61 -232 143 -97 129 -58 307 89 408 32 21
68 43 80 48 13 5 115 8 228 7 l205 -2 46 -32z m2302 -11 c147 -111 179 -272
73 -371 -43 -40 -27 -107 34 -151 70 -50 100 -188 66 -305 -20 -66 -86 -141
-171 -191 l-50 -29 -299 -3 c-326 -4 -378 0 -407 29 -18 18 -19 39 -19 519 l0
501 25 25 25 25 333 -3 334 -3 56 -43z"/>
<path d="M2926 2344 c-12 -11 -16 -36 -16 -94 0 -110 0 -110 160 -110 l129 0
35 30 c60 54 57 111 -11 163 -35 26 -40 27 -159 27 -98 0 -126 -3 -138 -16z"/>
<path d="M2939 1937 c-23 -12 -24 -15 -25 -140 -1 -97 2 -129 12 -138 18 -15
298 -13 326 2 30 16 78 99 78 134 0 39 -52 122 -84 135 -40 15 -279 21 -307 7z"/>
</g>
</svg>
